<?xml version="1.0" ?><!DOCTYPE svg  PUBLIC '-//W3C//DTD SVG 1.1//EN'  'http://www.w3.org/Graphics/SVG/1.1/DTD/svg11.dtd'><svg enable-background="new 0 0 141.732 141.732" height="141.732px" id="圖層_1" version="1.1" viewBox="0 0 141.732 141.732" width="141.732px" xml:space="preserve" xmlns="http://www.w3.org/2000/svg" xmlns:xlink="http://www.w3.org/1999/xlink"><g><path d="M132.379,22.454H9.354c-3.059,0-5.548,2.488-5.548,5.547v75.77c0,3.06,2.489,5.549,5.548,5.549h4.853v0.843   c0,5.026,4.09,9.116,9.117,9.116c5.027,0,9.116-4.09,9.116-9.116v-0.843h76.853v0.843c0,5.026,4.09,9.116,9.117,9.116   c5.027,0,9.116-4.09,9.116-9.116v-0.843h4.853c1.976,0,3.708-1.042,4.691-2.602c0.539-0.854,0.856-1.863,0.856-2.946v-0.001V96.47   V28.001C137.926,24.942,135.438,22.454,132.379,22.454z M118.41,116.298c-3.384,0-6.137-2.753-6.137-6.136v-0.843h12.273v0.843   C124.546,113.545,121.793,116.298,118.41,116.298z M23.324,116.298c-3.384,0-6.137-2.753-6.137-6.136v-0.843H29.46v0.843   C29.46,113.545,26.707,116.298,23.324,116.298z M9.354,25.435h123.025c1.416,0,2.567,1.151,2.567,2.566V94.98H6.787V28.001   C6.787,26.586,7.938,25.435,9.354,25.435z M126.896,106.339h-16.974H31.81H14.836H9.354c-1.416,0-2.567-1.152-2.567-2.568V97.96   h128.159v5.812c0,0.354-0.072,0.691-0.202,0.998c-0.063,0.147-0.14,0.288-0.228,0.42c-0.003,0.005-0.005,0.011-0.009,0.016   c-0.462,0.684-1.244,1.134-2.128,1.134H126.896z" fill="#EA5514"/><path d="M16.02,91.864h19.003c3.832,0,6.949-3.117,6.949-6.949v-4.323c0-3.831-3.117-6.948-6.949-6.948H16.02   c-3.832,0-6.95,3.117-6.95,6.948v4.323C9.07,88.747,12.188,91.864,16.02,91.864z M16.02,76.623h19.003   c2.188,0,3.969,1.78,3.969,3.969v4.323c0,2.188-1.781,3.97-3.969,3.97H16.02c-2.188,0-3.969-1.781-3.969-3.97v-4.323   C12.051,78.403,13.832,76.623,16.02,76.623z" fill="#EA5514"/><path d="M34.462,46.416c4.142,0,7.511-3.369,7.511-7.511s-3.369-7.511-7.511-7.511c-4.141,0-7.51,3.369-7.51,7.511   S30.321,46.416,34.462,46.416z M34.462,34.375c2.498,0,4.53,2.032,4.53,4.53s-2.032,4.53-4.53,4.53s-4.529-2.032-4.529-4.53   S31.965,34.375,34.462,34.375z" fill="#EA5514"/><path d="M16.581,46.416c4.142,0,7.511-3.369,7.511-7.511s-3.369-7.511-7.511-7.511c-4.141,0-7.51,3.369-7.51,7.511   S12.439,46.416,16.581,46.416z M16.581,34.375c2.498,0,4.53,2.032,4.53,4.53s-2.032,4.53-4.53,4.53   c-2.498,0-4.529-2.032-4.529-4.53S14.083,34.375,16.581,34.375z" fill="#EA5514"/><path d="M34.462,64.298c4.142,0,7.511-3.369,7.511-7.511c0-4.141-3.369-7.51-7.511-7.51   c-4.141,0-7.51,3.369-7.51,7.51C26.952,60.929,30.321,64.298,34.462,64.298z M34.462,52.257c2.498,0,4.53,2.032,4.53,4.53   s-2.032,4.53-4.53,4.53s-4.529-2.032-4.529-4.53S31.965,52.257,34.462,52.257z" fill="#EA5514"/><path d="M16.581,64.298c4.142,0,7.511-3.369,7.511-7.511c0-4.141-3.369-7.51-7.511-7.51   c-4.141,0-7.51,3.369-7.51,7.51C9.07,60.929,12.439,64.298,16.581,64.298z M16.581,52.257c2.498,0,4.53,2.032,4.53,4.53   s-2.032,4.53-4.53,4.53c-2.498,0-4.529-2.032-4.529-4.53S14.083,52.257,16.581,52.257z" fill="#EA5514"/><path d="M54.611,91.864h69.914c4.334,0,7.861-3.526,7.861-7.86V35.21c0-4.334-3.526-7.859-7.861-7.859H54.611   c-4.334,0-7.861,3.525-7.861,7.859v48.794C46.75,88.338,50.276,91.864,54.611,91.864z M54.611,30.33h69.914   c2.691,0,4.881,2.189,4.881,4.88v48.794c0,2.691-2.189,4.881-4.881,4.881H54.611c-2.691,0-4.88-2.189-4.88-4.881V35.21   C49.73,32.52,51.92,30.33,54.611,30.33z" fill="#EA5514"/></g></svg>